# xmcd
#
# Track frame offsets:
# 150
# 17245
# 35389
# 50039
# 60961
# 73188
# 84903
# 100462
# 116819
# 128350
#
# Disc length: 2025 seconds
#
# Revision: 0
# Processed by: cddbd v1.5.1PL0 Copyright (c) Steve Scherf et al.
# Submitted via: plextools 2.18
#
DISCID=8107e70a
DTITLE=鋲の人 - 蛍
DYEAR=2004
DGENRE=Game
TTITLE0=鋲の人 - 01
TTITLE1=鋲の人 - 02
TTITLE2=鋲の人 - 03
TTITLE3=鋲の人 - 04
TTITLE4=鋲の人 - 05
TTITLE5=鋲の人 - 06
TTITLE6=鋲の人 - 07
TTITLE7=鋲の人 - 08
TTITLE8=鋲の人 - 09
TTITLE9=鋲の人 - 10
EXTD=
EXTT0=
EXTT1=
EXTT2=
EXTT3=
EXTT4=
EXTT5=
EXTT6=
EXTT7=
EXTT8=
EXTT9=
PLAYORDER=
